<svg width="230" height="230" viewBox="0 0 230 230" fill="none" xmlns="http://www.w3.org/2000/svg">
<path d="M86.25 124.584C79.925 127.746 74.654 132.442 70.725 138.288C68.521 141.642 68.521 145.859 70.725 149.213C74.654 155.059 79.925 159.755 86.25 162.917" stroke="white" stroke-width="13.2115" stroke-linecap="round" stroke-linejoin="round"/>
<path d="M145.763 124.584C152.088 127.746 157.358 132.442 161.288 138.288C163.492 141.642 163.492 145.859 161.288 149.213C157.358 155.059 152.088 159.755 145.763 162.917" stroke="white" stroke-width="13.2115" stroke-linecap="round" stroke-linejoin="round"/>
<path d="M19.1667 124.583V143.75C19.1667 191.666 38.3334 210.833 86.25 210.833H143.75C191.667 210.833 210.834 191.666 210.834 143.75V86.2497C210.834 38.333 191.667 19.1663 143.75 19.1663H86.25C38.3334 19.1663 19.1667 38.333 19.1667 86.2497" stroke="white" stroke-width="13.2115" stroke-linecap="round" stroke-linejoin="round"/>
<path d="M21.3708 76.7618L205.562 76.6663" stroke="white" stroke-width="13.2115" stroke-linecap="round" stroke-linejoin="round"/>
</svg>
