<svg width="230" height="230" viewBox="0 0 230 230" fill="none" xmlns="http://www.w3.org/2000/svg">
<path d="M177.004 211.914H138.671C128.163 211.914 120.936 209.043 116.324 204.431C111.711 199.818 108.841 192.591 108.841 182.083V47.9167C108.841 37.4089 111.711 30.1817 116.324 25.5695C120.936 20.9574 128.163 18.0864 138.671 18.0864H177.004C187.512 18.0864 194.739 20.9574 199.351 25.5695C203.964 30.1817 206.835 37.4089 206.835 47.9167V182.083C206.835 192.579 203.946 199.809 199.32 204.426C194.691 209.046 187.458 211.914 177.004 211.914ZM138.671 20.2471C130.41 20.2471 123.059 21.9733 117.893 27.139C112.727 32.3047 111.001 39.6562 111.001 47.9167V182.083C111.001 190.344 112.727 197.695 117.893 202.861C123.059 208.027 130.41 209.753 138.671 209.753H177.004C185.265 209.753 192.616 208.027 197.782 202.861C202.948 197.695 204.674 190.344 204.674 182.083V47.9167C204.674 39.6562 202.948 32.3047 197.782 27.139C192.616 21.9733 185.265 20.2471 177.004 20.2471H138.671Z" stroke="white" stroke-width="12.2143"/>
<path d="M157.838 58.5802H109.921C109.675 58.5802 109.404 58.4808 109.172 58.2487C108.94 58.0165 108.841 57.7461 108.841 57.4999C108.841 57.2537 108.94 56.9832 109.172 56.7511C109.404 56.519 109.675 56.4195 109.921 56.4195H157.838C158.084 56.4195 158.354 56.519 158.586 56.7511C158.818 56.9832 158.918 57.2537 158.918 57.4999C158.918 57.7461 158.818 58.0165 158.586 58.2487C158.354 58.4808 158.084 58.5802 157.838 58.5802Z" stroke="white" stroke-width="12.2143"/>
<path d="M148.254 173.58H109.921C109.675 173.58 109.404 173.481 109.172 173.249C108.94 173.017 108.841 172.746 108.841 172.5C108.841 172.254 108.94 171.983 109.172 171.751C109.404 171.519 109.675 171.42 109.921 171.42H148.254C148.5 171.42 148.771 171.519 149.003 171.751C149.235 171.983 149.335 172.254 149.335 172.5C149.335 172.746 149.235 173.017 149.003 173.249C148.771 173.481 148.5 173.58 148.254 173.58Z" stroke="white" stroke-width="12.2143"/>
<path d="M109.886 134.768L109.855 134.768H109.825C109.294 134.768 108.825 134.302 108.839 133.737L108.84 133.664V133.592C108.84 133.142 109.257 132.607 109.921 132.607H109.921H109.921H109.921H109.921H109.921H109.921H109.921H109.921H109.921H109.921H109.921H109.921H109.921H109.921H109.921H109.921H109.921H109.921H109.921H109.921H109.921H109.921H109.921H109.921H109.921H109.921H109.921H109.921H109.921H109.921H109.921H109.921H109.921H109.921H109.921H109.921H109.921H109.921H109.921H109.921H109.921H109.921H109.921H109.921H109.921H109.921H109.921H109.921H109.921H109.921H109.921H109.921H109.921H109.921H109.921H109.921H109.921H109.921H109.921H109.921H109.921H109.921H109.921H109.921H109.921H109.921H109.921H109.922H109.922H109.922H109.922H109.922H109.922H109.922H109.922H109.922H109.922H109.922H109.922H109.922H109.922H109.922H109.922H109.922H109.922H109.922H109.922H109.922H109.922H109.922H109.922H109.922H109.922H109.922H109.922H109.922H109.922H109.922H109.922H109.922H109.922H109.923H109.923H109.923H109.923H109.923H109.923H109.923H109.923H109.923H109.923H109.923H109.923H109.923H109.923H109.923H109.923H109.923H109.923H109.923H109.923H109.923H109.923H109.923H109.924H109.924H109.924H109.924H109.924H109.924H109.924H109.924H109.924H109.924H109.924H109.924H109.924H109.924H109.924H109.924H109.924H109.925H109.925H109.925H109.925H109.925H109.925H109.925H109.925H109.925H109.925H109.925H109.925H109.925H109.925H109.925H109.926H109.926H109.926H109.926H109.926H109.926H109.926H109.926H109.926H109.926H109.926H109.926H109.927H109.927H109.927H109.927H109.927H109.927H109.927H109.927H109.927H109.927H109.927H109.928H109.928H109.928H109.928H109.928H109.928H109.928H109.928H109.928H109.928H109.929H109.929H109.929H109.929H109.929H109.929H109.929H109.929H109.929H109.93H109.93H109.93H109.93H109.93H109.93H109.93H109.93H109.93H109.931H109.931H109.931H109.931H109.931H109.931H109.931H109.931H109.932H109.932H109.932H109.932H109.932H109.932H109.932H109.933H109.933H109.933H109.933H109.933H109.933H109.933H109.934H109.934H109.934H109.934H109.934H109.934H109.934H109.935H109.935H109.935H109.935H109.935H109.935H109.936H109.936H109.936H109.936H109.936H109.936H109.936H109.937H109.937H109.937H109.937H109.937H109.938H109.938H109.938H109.938H109.938H109.938H109.939H109.939H109.939H109.939H109.939H109.94H109.94H109.94H109.94H109.94H109.94H109.941H109.941H109.941H109.941H109.941H109.942H109.942H109.942H109.942H109.943H109.943H109.943H109.943H109.943H109.944H109.944H109.944H109.944H109.944H109.945H109.945H109.945H109.945H109.946H109.946H109.946H109.946H109.946H109.947H109.947H109.947H109.947H109.948H109.948H109.948H109.948H109.949H109.949H109.949H109.949H109.95H109.95H109.95H109.95H109.951H109.951H109.951H109.951H109.952H109.952H109.952H109.952H109.953H109.953H109.953H109.954H109.954H109.954H109.954H109.955H109.955H109.955H109.956H109.956H109.956H109.956H109.957H109.957H109.957H109.958H109.958H109.958H109.958H109.959H109.959H109.959H109.96H109.96H109.96H109.961H109.961H109.961H109.962H109.962H109.962H109.963H109.963H109.963H109.963H109.964H109.964H109.964H109.965H109.965H109.965H109.966H109.966H109.967H109.967H109.967H109.968H109.968H109.968H109.969H109.969H109.969H109.97H109.97H109.97H109.971H109.971H109.971H109.972H109.972H109.973H109.973H109.973H109.974H109.974H109.974H109.975H109.975H109.976H109.976H109.976H109.977H109.977H109.978H109.978H109.978H109.979H109.979H109.98H109.98H109.98H109.981H109.981H109.982H109.982H109.982H109.983H109.983H109.984H109.984H109.985H109.985H109.985H109.986H109.986H109.987H109.987H109.988H109.988H109.989H109.989H109.989H109.99H109.99H109.991H109.991H109.992L157.872 133.086L157.903 133.086H157.933C158.463 133.086 158.931 133.551 158.92 134.114C158.903 134.808 158.377 135.238 157.854 135.247L109.886 134.768Z" stroke="white" stroke-width="12.2143"/>
<path d="M138.671 96.9139H109.921C109.675 96.9139 109.404 96.8144 109.172 96.5823C108.94 96.3502 108.841 96.0797 108.841 95.8335C108.841 95.5873 108.94 95.3168 109.172 95.0847C109.404 94.8526 109.675 94.7531 109.921 94.7531H138.671C138.917 94.7531 139.188 94.8526 139.42 95.0847C139.652 95.3168 139.751 95.5873 139.751 95.8335C139.751 96.0797 139.652 96.3502 139.42 96.5823C139.188 96.8144 138.917 96.9139 138.671 96.9139Z" stroke="white" stroke-width="12.2143"/>
<path d="M35.2279 199.825L35.2258 199.822L27.3743 186.8C27.3731 186.798 27.3719 186.796 27.3707 186.794C25.057 182.934 23.1654 176.164 23.1654 171.733V47.4376C23.1654 31.2605 36.3395 18.0864 52.5166 18.0864C68.6937 18.0864 81.8678 31.2605 81.8678 47.4376V171.638C81.8678 176.067 79.9766 182.837 77.6632 186.697C77.6618 186.699 77.6604 186.701 77.659 186.704L69.8074 199.726L69.7756 199.779L69.7449 199.832C65.0828 207.929 58.6247 211.626 52.6125 211.626C46.5935 211.626 40.1004 207.918 35.2279 199.825ZM29.246 185.58L29.2579 185.6L29.2699 185.62L37.1126 198.627C37.1153 198.632 37.118 198.636 37.1208 198.641C40.5062 204.313 45.8523 209.37 52.6125 209.37C59.4163 209.37 64.7546 204.152 68.0853 198.672L68.091 198.663L68.0966 198.653L75.955 185.62L75.967 185.6L75.9789 185.58C77.1403 183.62 78.0569 181.069 78.6757 178.809C79.2942 176.55 79.8029 173.896 79.8029 171.638V47.4376C79.8029 32.4689 67.5812 20.2471 52.6125 20.2471C37.6437 20.2471 25.422 32.4689 25.422 47.4376V171.638C25.422 173.896 25.9307 176.55 26.5492 178.809C27.1681 181.069 28.0847 183.62 29.246 185.58Z" stroke="white" stroke-width="12.2143"/>
<path d="M80.8833 68.1639H24.2458C23.9996 68.1639 23.7291 68.0644 23.497 67.8323C23.2649 67.6002 23.1654 67.3297 23.1654 67.0835C23.1654 66.8373 23.2649 66.5668 23.497 66.3347C23.7291 66.1026 23.9996 66.0031 24.2458 66.0031H80.8833C81.1295 66.0031 81.4 66.1026 81.6321 66.3347C81.8642 66.5668 81.9636 66.8373 81.9636 67.0835C81.9636 67.3297 81.8642 67.6002 81.6321 67.8323C81.4 68.0644 81.1295 68.1639 80.8833 68.1639Z" stroke="white" stroke-width="12.2143"/>
</svg>
