<svg width="25" height="23" viewBox="0 0 25 23" fill="none" xmlns="http://www.w3.org/2000/svg">
<g clip-path="url(#clip0_312_156)">
<path d="M12.6914 0C6.17781 0 0.896729 5.28108 0.896729 11.7947C0.896729 17.3215 4.70249 21.946 9.83318 23.2257C9.77814 23.0665 9.74276 22.8817 9.74276 22.6527V20.6368C9.26409 20.6368 8.46205 20.6368 8.26056 20.6368C7.4536 20.6368 6.73609 20.2898 6.38815 19.6451C6.00187 18.9285 5.93503 17.8326 4.9777 17.1623C4.69364 16.9392 4.90988 16.6846 5.23718 16.719C5.84166 16.89 6.34293 17.3048 6.81472 17.9201C7.28454 18.5364 7.50569 18.6759 8.38342 18.6759C8.80901 18.6759 9.44592 18.6514 10.0455 18.557C10.3679 17.7383 10.9252 16.9844 11.6063 16.6286C7.67868 16.2246 5.80431 14.2706 5.80431 11.6178C5.80431 10.4757 6.29084 9.37089 7.11745 8.44009C6.84617 7.51618 6.50511 5.63197 7.22164 4.91446C8.98888 4.91446 10.0573 6.06051 10.3138 6.37012C11.1945 6.06838 12.1617 5.89735 13.178 5.89735C14.1962 5.89735 15.1673 6.06838 16.05 6.37209C16.3036 6.06444 17.3729 4.91446 19.1441 4.91446C19.8636 5.63295 19.5186 7.52502 19.2444 8.44697C20.0661 9.37581 20.5497 10.4776 20.5497 11.6178C20.5497 14.2686 18.6782 16.2217 14.7565 16.6276C15.8357 17.1908 16.623 18.7732 16.623 19.9655V22.6527C16.623 22.7549 16.6004 22.8287 16.5886 22.9161C21.1846 21.3052 24.4861 16.9411 24.4861 11.7947C24.4861 5.28108 19.2051 0 12.6914 0Z" fill="white"/>
</g>
<defs>
<clipPath id="clip0_312_156">
<rect width="23.5894" height="22.9997" fill="white" transform="translate(0.896729)"/>
</clipPath>
</defs>
</svg>
